<svg viewBox="0 0 264 263" fill="none" xmlns="http://www.w3.org/2000/svg">
<path d="M131.872 68.1046C153.28 46.64 173.118 24.7858 193.282 4.96753C195.494 2.79343 199.278 1.22253 202.383 1.14713C217.456 0.757546 232.554 0.933486 247.627 0.971187C257.307 0.996321 262.423 5.98547 262.486 15.6119C262.587 31.1071 262.675 46.6149 262.386 62.1101C262.335 64.6486 260.839 67.715 259.016 69.5624C240.197 88.6518 221.177 107.54 202.22 126.479C200.913 127.786 198.863 129.708 196.726 131.631C199.002 131.594 201.529 131.543 203.05 131.556C218.135 131.581 233.22 131.493 248.306 131.619C257.282 131.694 262.386 136.746 262.461 145.644C262.587 161.352 262.65 177.061 262.398 192.77C262.36 195.133 261.091 198.048 259.419 199.745C239.858 219.576 220.172 239.281 200.309 258.798C198.361 260.708 195.004 262.065 192.251 262.128C177.593 262.455 162.923 262.354 148.265 262.279C136.699 262.228 131.909 257.34 131.884 245.753C131.859 230.057 131.884 213.267 131.884 196.616C130.275 198.224 129.156 199.569 128.264 200.461C108.841 219.84 89.5321 239.331 69.9462 258.546C67.8594 260.595 64.2766 262.065 61.3349 262.128C46.8907 262.492 32.4212 262.329 17.977 262.279C6.16009 262.241 1.20706 257.239 1.19449 245.439C1.16935 230.987 0.968209 216.534 1.37049 202.095C1.45848 198.991 3.05501 195.208 5.22982 192.984C24.9917 172.788 47.1547 152.266 67.7965 131.594C65.496 131.594 61.9761 131.619 60.4675 131.619C46.0107 131.581 31.5538 131.631 17.097 131.581C6.36123 131.543 1.24477 126.491 1.20706 115.872C1.1442 100.792 1.04364 85.7111 1.33277 70.6306C1.38306 68.0669 2.67789 64.9126 4.47557 63.0903C24.0237 43.2595 43.7479 23.5794 63.5977 4.03756C65.2949 2.36614 68.2114 1.13457 70.5873 1.09687C86.3013 0.832957 102.015 0.88323 117.729 0.983766C126.617 1.0466 131.746 6.14883 131.821 15.0966C131.947 29.5488 131.859 44.0009 131.859 58.4531C131.859 60.4638 131.897 64.2214 131.897 68.092L131.872 68.1046ZM196.613 131.606C180.107 131.606 163.425 131.644 147.523 131.594C137.164 131.556 132.035 126.491 131.897 116.274C131.834 111.247 131.884 106.233 131.884 101.206C131.884 90.0342 131.884 77.6304 131.884 68.1046C111.079 88.6643 88.7275 110.896 67.7965 131.581C83.1962 131.581 100.444 131.543 116.56 131.594C127.145 131.631 131.784 136.306 131.834 147.001C131.909 161.44 131.834 175.88 131.872 190.32C131.872 192.041 131.733 195.761 131.733 196.515C152.828 175.528 175.079 153.033 196.626 131.606H196.613Z" stroke="white" stroke-opacity="0.3" stroke-width="1.26309" stroke-miterlimit="10"/>
</svg>

