<svg viewBox="0 0 179 20" fill="none" xmlns="http://www.w3.org/2000/svg">
<path d="M174.837 15.8984C173.397 15.8984 172.277 15.5793 171.476 14.9412C170.689 14.2895 170.254 13.3662 170.173 12.1714H171.863C172.053 13.7328 173.058 14.5135 174.877 14.5135C175.706 14.5135 176.317 14.3574 176.71 14.0451C177.118 13.7192 177.321 13.2983 177.321 12.7824C177.321 12.2257 177.124 11.8252 176.731 11.5808C176.337 11.3364 175.617 11.1056 174.572 10.8883C174.137 10.7933 173.791 10.7186 173.533 10.6643C173.289 10.5964 172.99 10.5082 172.637 10.3996C172.284 10.2774 172.006 10.1484 171.802 10.0126C171.612 9.86325 171.415 9.68674 171.211 9.48308C171.008 9.27942 170.858 9.02823 170.763 8.72953C170.682 8.43083 170.641 8.09818 170.641 7.73159C170.641 6.83548 170.967 6.12945 171.619 5.61351C172.284 5.09757 173.221 4.8396 174.429 4.8396C176.927 4.8396 178.306 5.93937 178.564 8.13891H176.873C176.792 7.44646 176.554 6.9441 176.16 6.63182C175.767 6.30596 175.176 6.14303 174.389 6.14303C173.669 6.14303 173.133 6.28559 172.78 6.57072C172.44 6.84227 172.27 7.20207 172.27 7.65013C172.27 8.16607 172.474 8.53266 172.881 8.7499C173.289 8.95356 174.029 9.16401 175.101 9.38125C175.753 9.51702 176.262 9.64601 176.629 9.7682C177.009 9.87682 177.403 10.0533 177.81 10.2977C178.217 10.5285 178.516 10.8408 178.706 11.2346C178.896 11.6283 178.991 12.1171 178.991 12.7009C178.991 13.7328 178.611 14.5271 177.851 15.0838C177.09 15.6269 176.086 15.8984 174.837 15.8984Z" fill="currentColor"/>
<path d="M164.568 15.878C163.006 15.878 161.764 15.3553 160.841 14.3098C159.931 13.2508 159.476 11.927 159.476 10.3384C159.476 8.77701 159.938 7.46679 160.861 6.40775C161.798 5.33514 163 4.79883 164.466 4.79883C166.014 4.79883 167.209 5.34193 168.05 6.42812C168.892 7.50074 169.313 8.93315 169.313 10.7254H161.167C161.235 11.8387 161.56 12.7484 162.144 13.4544C162.742 14.1469 163.55 14.4931 164.568 14.4931C166.143 14.4931 167.114 13.7735 167.48 12.3343H169.089C168.845 13.4612 168.329 14.337 167.541 14.9615C166.754 15.5725 165.763 15.878 164.568 15.878ZM166.666 6.99837C166.136 6.40096 165.403 6.10226 164.466 6.10226C163.529 6.10226 162.782 6.41454 162.226 7.0391C161.683 7.66366 161.343 8.47831 161.207 9.48304H167.541C167.487 8.424 167.195 7.59578 166.666 6.99837Z" fill="currentColor"/>
<path d="M156.25 15.5928V5.0635H157.9V15.5928H156.25ZM156.25 3.06762V1.03101H157.9V3.06762H156.25Z" fill="currentColor"/>
<path d="M149.469 19.0958C148.125 19.0958 147.066 18.8378 146.292 18.3218C145.531 17.8195 145.104 17.1067 145.009 16.1834H146.536C146.686 17.256 147.65 17.7923 149.428 17.7923C151.438 17.7923 152.442 16.8894 152.442 15.0836V13.5969H152.402C151.981 14.14 151.533 14.5473 151.057 14.8189C150.582 15.0904 149.992 15.2262 149.286 15.2262C147.928 15.2262 146.821 14.7374 145.966 13.7598C145.111 12.7823 144.683 11.5331 144.683 10.0125C144.683 8.4239 145.111 7.1612 145.966 6.22436C146.835 5.28751 147.908 4.81909 149.184 4.81909C150.569 4.81909 151.641 5.34861 152.402 6.40765H152.442V5.06349H154.092V15.0225C154.092 16.3667 153.678 17.3782 152.85 18.0571C152.035 18.7495 150.908 19.0958 149.469 19.0958ZM149.367 13.8413C151.499 13.8413 152.565 12.5379 152.565 9.93099C152.565 7.44632 151.492 6.20399 149.347 6.20399C148.383 6.20399 147.643 6.55021 147.127 7.24266C146.624 7.93511 146.373 8.86516 146.373 10.0328C146.373 11.2005 146.631 12.1305 147.147 12.823C147.663 13.5019 148.403 13.8413 149.367 13.8413Z" fill="currentColor"/>
<path d="M142.325 14.2894C141.402 15.3485 140.173 15.878 138.639 15.878C137.104 15.878 135.869 15.3485 134.932 14.2894C134.009 13.2304 133.547 11.9134 133.547 10.3384C133.547 8.76344 134.009 7.44643 134.932 6.38739C135.869 5.32835 137.104 4.79883 138.639 4.79883C140.173 4.79883 141.402 5.32835 142.325 6.38739C143.248 7.44643 143.71 8.76344 143.71 10.3384C143.71 11.9134 143.248 13.2304 142.325 14.2894ZM136.113 13.3322C136.711 14.1062 137.552 14.4931 138.639 14.4931C139.725 14.4931 140.56 14.1062 141.144 13.3322C141.728 12.5447 142.019 11.5468 142.019 10.3384C142.019 9.11645 141.721 8.11851 141.123 7.34459C140.539 6.5571 139.711 6.16336 138.639 6.16336C137.552 6.16336 136.711 6.5571 136.113 7.34459C135.529 8.13209 135.238 9.13003 135.238 10.3384C135.238 11.5468 135.529 12.5447 136.113 13.3322Z" fill="currentColor"/>
<path d="M130.263 15.5928V1.03101H131.912V15.5928H130.263Z" fill="currentColor"/>
<path d="M127.253 14.2894C126.33 15.3485 125.101 15.878 123.567 15.878C122.033 15.878 120.797 15.3485 119.86 14.2894C118.937 13.2304 118.475 11.9134 118.475 10.3384C118.475 8.76344 118.937 7.44643 119.86 6.38739C120.797 5.32835 122.033 4.79883 123.567 4.79883C125.101 4.79883 126.33 5.32835 127.253 6.38739C128.176 7.44643 128.638 8.76344 128.638 10.3384C128.638 11.9134 128.176 13.2304 127.253 14.2894ZM121.041 13.3322C121.639 14.1062 122.481 14.4931 123.567 14.4931C124.653 14.4931 125.488 14.1062 126.072 13.3322C126.656 12.5447 126.948 11.5468 126.948 10.3384C126.948 9.11645 126.649 8.11851 126.051 7.34459C125.468 6.5571 124.639 6.16336 123.567 6.16336C122.481 6.16336 121.639 6.5571 121.041 7.34459C120.458 8.13209 120.166 9.13003 120.166 10.3384C120.166 11.5468 120.458 12.5447 121.041 13.3322Z" fill="currentColor"/>
<path d="M110.037 5.06349V6.44838H110.078C110.892 5.36219 112.006 4.81909 113.418 4.81909C114.531 4.81909 115.4 5.11101 116.025 5.69484C116.649 6.27867 116.962 7.11368 116.962 8.19987V15.5928H115.312V8.34243C115.312 7.66356 115.101 7.14083 114.681 6.77424C114.26 6.39407 113.676 6.20399 112.929 6.20399C112.087 6.20399 111.395 6.47554 110.852 7.01863C110.309 7.56173 110.037 8.26097 110.037 9.11635V15.5928H108.387V5.06349H110.037Z" fill="currentColor"/>
<path d="M99.3586 1.03101V6.4484H99.3994C100.214 5.3622 101.327 4.81911 102.739 4.81911C103.853 4.81911 104.722 5.11102 105.346 5.69485C105.971 6.27868 106.283 7.11369 106.283 8.19989V15.5928H104.633V8.34245C104.633 7.66358 104.423 7.14085 104.002 6.77426C103.581 6.39409 102.997 6.204 102.251 6.204C101.409 6.204 100.716 6.47555 100.173 7.01865C99.6302 7.56175 99.3586 8.26098 99.3586 9.11636V15.5928H97.709V1.03101H99.3586Z" fill="currentColor"/>
<path d="M91.7304 15.878C90.1962 15.878 88.9607 15.3485 88.0238 14.2894C87.1005 13.2304 86.6389 11.9134 86.6389 10.3384C86.6389 8.76344 87.1005 7.44643 88.0238 6.38739C88.9607 5.32835 90.1962 4.79883 91.7304 4.79883C92.966 4.79883 93.9775 5.13147 94.765 5.79677C95.5525 6.44848 96.0413 7.33781 96.2314 8.46473H94.5613C94.4391 7.74513 94.1337 7.18167 93.6449 6.77434C93.1561 6.36702 92.5179 6.16336 91.7304 6.16336C90.6443 6.16336 89.8025 6.5571 89.205 7.34459C88.6212 8.13209 88.3293 9.13003 88.3293 10.3384C88.3293 11.5468 88.6212 12.5447 89.205 13.3322C89.8025 14.1062 90.6443 14.4931 91.7304 14.4931C92.5722 14.4931 93.2443 14.2691 93.7467 13.821C94.2491 13.3594 94.5342 12.7145 94.6021 11.8862H96.2314C96.1227 13.1489 95.6747 14.1333 94.8872 14.8393C94.0997 15.5318 93.0475 15.878 91.7304 15.878Z" fill="currentColor"/>
<path d="M80.9526 15.878C79.3912 15.878 78.1489 15.3553 77.2256 14.3098C76.3159 13.2508 75.8611 11.927 75.8611 10.3384C75.8611 8.77701 76.3227 7.46679 77.246 6.40775C78.1828 5.33514 79.3844 4.79883 80.8508 4.79883C82.3986 4.79883 83.5934 5.34193 84.4352 6.42812C85.277 7.50074 85.6979 8.93315 85.6979 10.7254H77.5515C77.6194 11.8387 77.9452 12.7484 78.529 13.4544C79.1265 14.1469 79.9343 14.4931 80.9526 14.4931C82.5276 14.4931 83.4984 13.7735 83.865 12.3343H85.4739C85.2295 13.4612 84.7136 14.337 83.9261 14.9615C83.1386 15.5725 82.1474 15.878 80.9526 15.878ZM83.0503 6.99837C82.5208 6.40096 81.7876 6.10226 80.8508 6.10226C79.9139 6.10226 79.1672 6.41454 78.6105 7.0391C78.0674 7.66366 77.728 8.47831 77.5922 9.48304H83.9261C83.8718 8.424 83.5798 7.59578 83.0503 6.99837Z" fill="currentColor"/>
<path d="M65.6781 2.63993V1.03101H77.2053V2.63993H72.3582V15.5928H70.5252V2.63993H65.6781Z" fill="currentColor"/>
<path d="M59.3147 15.5928V1.03101H60.9644V15.5928H59.3147Z" fill="currentColor"/>
<path d="M52.9768 15.878C51.4154 15.878 50.173 15.3553 49.2498 14.3098C48.3401 13.2508 47.8853 11.927 47.8853 10.3384C47.8853 8.77701 48.3469 7.46679 49.2701 6.40775C50.207 5.33514 51.4086 4.79883 52.875 4.79883C54.4228 4.79883 55.6176 5.34193 56.4594 6.42812C57.3012 7.50074 57.7221 8.93315 57.7221 10.7254H49.5756C49.6435 11.8387 49.9694 12.7484 50.5532 13.4544C51.1506 14.1469 51.9585 14.4931 52.9768 14.4931C54.5518 14.4931 55.5226 13.7735 55.8891 12.3343H57.4981C57.2537 13.4612 56.7377 14.337 55.9502 14.9615C55.1628 15.5725 54.1716 15.878 52.9768 15.878ZM55.0745 6.99837C54.545 6.40096 53.8118 6.10226 52.875 6.10226C51.9381 6.10226 51.1914 6.41454 50.6347 7.0391C50.0916 7.66366 49.7521 8.47831 49.6164 9.48304H55.9502C55.8959 8.424 55.604 7.59578 55.0745 6.99837Z" fill="currentColor"/>
<path d="M41.7396 6.40774V5.06358H43.2671V1.7439H44.9167V5.06358H46.9534V6.40774H44.9167V13.2508C44.9167 13.9025 45.2698 14.2283 45.9758 14.2283C46.2745 14.2283 46.5664 14.1808 46.8515 14.0858H46.9126V15.5114C46.4646 15.6064 46.0233 15.654 45.5888 15.654C44.041 15.654 43.2671 14.9751 43.2671 13.6174V6.40774H41.7396Z" fill="currentColor"/>
<path d="M36.0334 6.40779V5.06363H37.4794V3.37324C37.4794 2.50428 37.717 1.87972 38.1923 1.49955C38.6675 1.10581 39.3599 0.908936 40.2696 0.908936C40.5276 0.908936 40.8059 0.922513 41.1046 0.949667V2.35493C40.9145 2.34135 40.738 2.33456 40.5751 2.33456C40.0456 2.33456 39.6722 2.41603 39.455 2.57896C39.2377 2.74189 39.1291 3.0338 39.1291 3.4547V5.06363H41.0842V6.40779H39.1291V15.5929H37.4794V6.40779H36.0334Z" fill="currentColor"/>
<path d="M33.9558 14.2894C33.0325 15.3485 31.8038 15.878 30.2695 15.878C28.7353 15.878 27.4997 15.3485 26.5629 14.2894C25.6396 13.2304 25.178 11.9134 25.178 10.3384C25.178 8.76344 25.6396 7.44643 26.5629 6.38739C27.4997 5.32835 28.7353 4.79883 30.2695 4.79883C31.8038 4.79883 33.0325 5.32835 33.9558 6.38739C34.879 7.44643 35.3407 8.76344 35.3407 10.3384C35.3407 11.9134 34.879 13.2304 33.9558 14.2894ZM27.7441 13.3322C28.3415 14.1062 29.1833 14.4931 30.2695 14.4931C31.3557 14.4931 32.1907 14.1062 32.7745 13.3322C33.3584 12.5447 33.6503 11.5468 33.6503 10.3384C33.6503 9.11645 33.3516 8.11851 32.7542 7.34459C32.1704 6.5571 31.3421 6.16336 30.2695 6.16336C29.1833 6.16336 28.3415 6.5571 27.7441 7.34459C27.1603 8.13209 26.8684 9.13003 26.8684 10.3384C26.8684 11.5468 27.1603 12.5447 27.7441 13.3322Z" fill="currentColor"/>
<path d="M19.9173 15.8984C18.4781 15.8984 17.3579 15.5793 16.5569 14.9412C15.7694 14.2895 15.3349 13.3662 15.2534 12.1714H16.9438C17.1339 13.7328 18.1386 14.5135 19.958 14.5135C20.7862 14.5135 21.3972 14.3574 21.7909 14.0451C22.1983 13.7192 22.4019 13.2983 22.4019 12.7824C22.4019 12.2257 22.2051 11.8252 21.8113 11.5808C21.4176 11.3364 20.698 11.1056 19.6525 10.8883C19.218 10.7933 18.8718 10.7186 18.6138 10.6643C18.3694 10.5964 18.0707 10.5082 17.7177 10.3996C17.3647 10.2774 17.0864 10.1484 16.8827 10.0126C16.6926 9.86325 16.4958 9.68674 16.2921 9.48308C16.0884 9.27942 15.9391 9.02823 15.844 8.72953C15.7626 8.43083 15.7218 8.09818 15.7218 7.73159C15.7218 6.83548 16.0477 6.12945 16.6994 5.61351C17.3647 5.09757 18.3015 4.8396 19.5099 4.8396C22.0082 4.8396 23.3863 5.93937 23.6443 8.13891H21.9539C21.8724 7.44646 21.6348 6.9441 21.2411 6.63182C20.8473 6.30596 20.2567 6.14303 19.4692 6.14303C18.7496 6.14303 18.2133 6.28559 17.8603 6.57072C17.5208 6.84227 17.3511 7.20207 17.3511 7.65013C17.3511 8.16607 17.5548 8.53266 17.9621 8.7499C18.3694 8.95356 19.1094 9.16401 20.182 9.38125C20.8337 9.51702 21.3429 9.64601 21.7095 9.7682C22.0897 9.87682 22.4834 10.0533 22.8907 10.2977C23.298 10.5285 23.5967 10.8408 23.7868 11.2346C23.9769 11.6283 24.072 12.1171 24.072 12.7009C24.072 13.7328 23.6918 14.5271 22.9315 15.0838C22.1711 15.6269 21.1664 15.8984 19.9173 15.8984Z" fill="currentColor"/>
<path d="M6.89685 5.06349V6.44838H6.93758C7.75223 5.36219 8.86558 4.81909 10.2776 4.81909C11.391 4.81909 12.2599 5.11101 12.8845 5.69484C13.5091 6.27867 13.8213 7.11368 13.8213 8.19987V15.5928H12.1717V8.34243C12.1717 7.66356 11.9612 7.14083 11.5403 6.77424C11.1194 6.39407 10.5356 6.20399 9.78884 6.20399C8.94704 6.20399 8.25459 6.47554 7.71149 7.01863C7.1684 7.56173 6.89685 8.26097 6.89685 9.11635V15.5928H5.24719V5.06349H6.89685Z" fill="currentColor"/>
<path d="M0.979614 15.5928V1.03101H2.81257V15.5928H0.979614Z" fill="currentColor"/>
</svg>
