<svg viewBox="0 0 209 209" fill="none" xmlns="http://www.w3.org/2000/svg">
<path d="M104.516 54.2073C121.465 37.2136 137.17 19.9115 153.134 4.22115C154.886 2.49989 157.882 1.2562 160.34 1.1965C172.274 0.888068 184.227 1.02736 196.16 1.05721C203.824 1.07711 207.874 5.02706 207.924 12.6484C208.004 24.916 208.073 37.1937 207.844 49.4614C207.805 51.4712 206.62 53.8988 205.177 55.3614C190.278 70.4747 175.22 85.4287 160.211 100.423C159.176 101.457 157.553 102.98 155.862 104.502C157.663 104.472 159.663 104.432 160.868 104.442C172.811 104.462 184.754 104.392 196.697 104.492C203.804 104.552 207.844 108.551 207.904 115.596C208.004 128.032 208.053 140.469 207.854 152.906C207.825 154.777 206.819 157.085 205.496 158.428C190.009 174.128 174.423 189.729 158.698 205.181C157.155 206.693 154.498 207.767 152.318 207.817C140.714 208.076 129.099 207.996 117.494 207.937C108.337 207.897 104.545 204.026 104.526 194.853C104.506 182.426 104.526 169.134 104.526 155.951C103.252 157.224 102.366 158.289 101.659 158.995C86.2823 174.337 70.9949 189.769 55.4886 204.982C53.8365 206.603 51 207.767 48.671 207.817C37.2354 208.106 25.7798 207.976 14.3442 207.937C4.98864 207.907 1.06729 203.947 1.05734 194.604C1.03743 183.162 0.878187 171.72 1.19667 160.289C1.26634 157.831 2.53033 154.836 4.25214 153.075C19.8978 137.086 37.4444 120.839 53.7867 104.472C51.9654 104.472 49.1786 104.492 47.9843 104.492C36.5387 104.462 25.0931 104.502 13.6475 104.462C5.14789 104.432 1.09714 100.433 1.06728 92.0252C1.01752 80.0859 0.937904 68.1465 1.16682 56.2071C1.20663 54.1774 2.23175 51.6801 3.65499 50.2374C19.1314 34.5372 34.7472 18.9563 50.4625 3.48488C51.8061 2.1616 54.1151 1.18656 55.9962 1.15671C68.4371 0.947772 80.8779 0.987573 93.3188 1.06717C100.355 1.11692 104.416 5.1564 104.476 12.2404C104.575 23.6823 104.506 35.1242 104.506 46.5661C104.506 48.158 104.535 51.1329 104.535 54.1973L104.516 54.2073ZM155.772 104.482C142.704 104.482 129.497 104.512 116.907 104.472C108.706 104.442 104.645 100.433 104.535 92.3436C104.486 88.3638 104.526 84.394 104.526 80.4142C104.526 71.5691 104.526 61.749 104.526 54.2073C88.0538 70.4846 70.3579 88.0852 53.7867 104.462C65.9788 104.462 79.6339 104.432 92.3932 104.472C100.773 104.502 104.446 108.203 104.486 116.67C104.545 128.102 104.486 139.534 104.516 150.966C104.516 152.329 104.406 155.274 104.406 155.871C121.107 139.255 138.723 121.446 155.782 104.482H155.772Z" stroke="white" stroke-opacity="0.2" stroke-miterlimit="10"/>
</svg>
