<svg viewBox="0 0 418 418" fill="none" xmlns="http://www.w3.org/2000/svg">
<path d="M209.039 107.942C243.1 73.7913 274.662 39.0211 306.743 7.48998C310.263 4.03095 316.283 1.53164 321.224 1.41167C345.205 0.791847 369.226 1.07177 393.207 1.13175C408.607 1.17174 416.748 9.10952 416.848 24.4252C417.008 49.0783 417.148 73.7513 416.688 98.4044C416.608 102.443 414.228 107.322 411.328 110.261C381.386 140.632 351.125 170.684 320.964 200.816C318.884 202.895 315.623 205.954 312.223 209.013C315.843 208.953 319.864 208.873 322.284 208.893C346.285 208.933 370.286 208.793 394.287 208.993C408.567 209.113 416.688 217.151 416.808 231.307C417.008 256.3 417.108 281.293 416.708 306.286C416.648 310.045 414.628 314.683 411.968 317.383C380.846 348.934 349.525 380.285 317.924 411.336C314.823 414.375 309.483 416.535 305.103 416.635C281.782 417.155 258.441 416.995 235.12 416.875C216.719 416.795 209.099 409.017 209.059 390.582C209.019 365.609 209.059 338.897 209.059 312.404C206.499 314.963 204.719 317.103 203.299 318.522C172.397 349.354 141.676 380.365 110.515 410.936C107.195 414.195 101.494 416.535 96.8142 416.635C73.8332 417.215 50.8122 416.955 27.8312 416.875C9.03043 416.815 1.15012 408.857 1.13011 390.082C1.09011 367.089 0.770098 344.095 1.41013 321.122C1.55013 316.183 4.09022 310.165 7.55037 306.626C38.9917 274.495 74.2532 241.844 107.095 208.953C103.434 208.953 97.8342 208.993 95.4341 208.993C72.4331 208.933 49.4322 209.013 26.4312 208.933C9.35045 208.873 1.21011 200.836 1.1501 183.94C1.0501 159.947 0.890106 135.954 1.35013 111.961C1.43013 107.882 3.49022 102.863 6.35034 99.9639C37.4517 68.4128 68.833 37.1016 100.414 6.01038C103.114 3.35113 107.755 1.39169 111.535 1.33171C136.536 0.911827 161.537 0.991812 186.538 1.15177C200.679 1.25174 208.839 9.36944 208.959 23.6054C209.159 46.599 209.019 69.5925 209.019 92.586C209.019 95.7851 209.079 101.763 209.079 107.922L209.039 107.942ZM312.043 208.973C285.782 208.973 259.241 209.033 233.94 208.953C217.459 208.893 209.299 200.836 209.079 184.58C208.979 176.582 209.059 168.605 209.059 160.607C209.059 142.832 209.059 123.097 209.059 107.942C175.958 140.652 140.396 176.023 107.095 208.933C131.596 208.933 159.037 208.873 184.678 208.953C201.519 209.013 208.899 216.451 208.979 233.466C209.099 256.44 208.979 279.413 209.039 302.387C209.039 305.126 208.819 311.044 208.819 312.244C242.38 278.854 277.782 243.064 312.063 208.973H312.043Z" stroke="white" stroke-opacity="0.2" stroke-width="1.33329" stroke-miterlimit="10"/>
</svg>
