<svg width="314" height="314" viewBox="0 0 314 314" fill="none" xmlns="http://www.w3.org/2000/svg">
<path d="M157.023 81.1965C182.57 55.5828 206.242 29.5042 230.304 5.85507C232.944 3.2607 237.46 1.38615 241.165 1.29618C259.151 0.831291 277.168 1.04124 295.154 1.08623C306.705 1.11622 312.811 7.06977 312.886 18.5569C313.006 37.0474 313.111 55.5528 312.766 74.0433C312.706 77.0725 310.92 80.7316 308.745 82.936C286.289 105.715 263.592 128.255 240.97 150.854C239.41 152.414 236.965 154.708 234.414 157.003C237.13 156.958 240.145 156.898 241.96 156.913C259.961 156.943 277.963 156.838 295.964 156.988C306.675 157.078 312.766 163.106 312.856 173.724C313.006 192.469 313.081 211.214 312.781 229.96C312.736 232.779 311.22 236.258 309.225 238.283C285.883 261.947 262.392 285.461 238.69 308.75C236.365 311.03 232.359 312.649 229.074 312.724C211.583 313.114 194.076 312.994 176.585 312.904C162.784 312.844 157.069 307.011 157.039 293.184C157.009 274.454 157.039 254.419 157.039 234.549C155.118 236.468 153.783 238.073 152.718 239.138C129.541 262.262 106.5 285.521 83.1278 308.45C80.6376 310.895 76.3622 312.649 72.852 312.724C55.6156 313.159 38.3493 312.964 21.113 312.904C7.01187 312.859 1.10142 306.891 1.08642 292.809C1.05642 275.564 0.816398 258.318 1.29644 241.087C1.40144 237.383 3.30658 232.869 5.90178 230.215C29.4836 206.116 55.9307 181.627 80.5626 156.958C77.8174 156.958 73.617 156.988 71.8169 156.988C54.5656 156.943 37.3142 157.003 20.0629 156.943C7.25189 156.898 1.14642 150.869 1.10141 138.197C1.02641 120.202 0.906407 102.206 1.25143 84.2107C1.31144 81.1515 2.85656 77.3874 5.00172 75.213C28.3285 51.5488 51.8654 28.0646 75.5522 4.74533C77.5773 2.75082 81.0576 1.28119 83.8928 1.2362C102.644 0.921279 121.396 0.98127 140.147 1.10124C150.753 1.17622 156.873 7.26471 156.963 17.9421C157.113 35.1878 157.008 52.4336 157.008 69.6793C157.008 72.0787 157.053 76.5626 157.053 81.1815L157.023 81.1965ZM234.279 156.973C214.583 156.973 194.676 157.018 175.7 156.958C163.339 156.913 157.218 150.869 157.053 138.677C156.978 132.679 157.039 126.695 157.039 120.697C157.039 107.365 157.039 92.5637 157.039 81.1965C132.212 105.73 105.54 132.259 80.5626 156.943C98.939 156.943 119.521 156.898 138.752 156.958C151.383 157.003 156.918 162.581 156.978 175.343C157.069 192.574 156.978 209.805 157.023 227.036C157.023 229.09 156.859 233.529 156.859 234.429C182.03 209.385 208.582 182.541 234.294 156.973H234.279Z" stroke="currentColor" stroke-opacity="0.2" stroke-miterlimit="10"/>
</svg>
