<svg width="168" height="168" viewBox="0 0 168 168" fill="none" xmlns="http://www.w3.org/2000/svg">
<path d="M84.0125 43.6686C97.6048 30.0408 110.199 16.1657 123.002 3.58314C124.406 2.20281 126.809 1.20545 128.78 1.15758C138.35 0.910238 147.935 1.02194 157.505 1.04588C163.651 1.06184 166.899 4.22943 166.939 10.3412C167.003 20.1791 167.059 30.0249 166.875 39.8628C166.843 41.4745 165.894 43.4213 164.736 44.5942C152.788 56.714 140.712 68.7061 128.676 80.7302C127.846 81.56 126.545 82.7807 125.188 84.0015C126.633 83.9776 128.237 83.9456 129.203 83.9536C138.781 83.9696 148.358 83.9137 157.936 83.9935C163.635 84.0414 166.875 87.2489 166.923 92.8979C167.003 102.871 167.043 112.845 166.883 122.818C166.859 124.318 166.053 126.169 164.992 127.247C152.573 139.837 140.074 152.348 127.463 164.739C126.226 165.952 124.095 166.813 122.347 166.853C113.041 167.061 103.727 166.997 94.4202 166.949C87.0774 166.917 84.0365 163.813 84.0205 156.457C84.0045 146.491 84.0205 135.832 84.0205 125.26C82.9989 126.281 82.2885 127.135 81.7218 127.701C69.3906 140.005 57.1312 152.38 44.6962 164.579C43.3713 165.88 41.0966 166.813 39.2289 166.853C30.0583 167.085 20.8717 166.981 11.7011 166.949C4.19862 166.925 1.05396 163.75 1.04598 156.258C1.03002 147.082 0.902314 137.906 1.15772 128.739C1.21359 126.768 2.22722 124.366 3.608 122.954C16.1547 110.132 30.2259 97.1027 43.3314 83.9776C41.8708 83.9776 39.636 83.9935 38.6782 83.9935C29.4996 83.9696 20.321 84.0015 11.1424 83.9696C4.32633 83.9456 1.0779 80.7382 1.05396 73.9961C1.01405 64.4215 0.950204 54.8469 1.13378 45.2724C1.1657 43.6447 1.98778 41.642 3.12912 40.4851C15.5402 27.8946 28.063 15.3997 40.6656 2.99271C41.7431 1.93153 43.5948 1.14961 45.1032 1.12567C55.08 0.958116 65.0567 0.990035 75.0334 1.05386C80.6763 1.09376 83.9327 4.33315 83.9806 10.0141C84.0604 19.1897 84.0045 28.3653 84.0045 37.5409C84.0045 38.8175 84.0285 41.2032 84.0285 43.6607L84.0125 43.6686ZM125.117 83.9855C114.637 83.9855 104.046 84.0095 93.9493 83.9776C87.3727 83.9536 84.1162 80.7382 84.0285 74.2514C83.9885 71.0599 84.0205 67.8763 84.0205 64.6848C84.0205 57.5916 84.0205 49.7166 84.0205 43.6686C70.8113 56.722 56.6204 70.8365 43.3314 83.9696C53.1086 83.9696 64.059 83.9456 74.2912 83.9776C81.0115 84.0015 83.9566 86.9696 83.9886 93.7596C84.0364 102.927 83.9886 112.095 84.0125 121.262C84.0125 122.356 83.9247 124.717 83.9247 125.196C97.3175 111.871 111.445 97.5894 125.125 83.9855H125.117Z" stroke="black" stroke-opacity="0.2" stroke-miterlimit="10"/>
</svg>
